# xmcd CD database file
#
# Track frame offsets:
#	150
#	16560
#	33725
#	57283
#	70143
#	89595
#	109348
#	131658
#	149525
#	165933
#	183880
#	200293
#	222025
#
# Disc length: 3262 seconds
#
# Revision: 1
# Processed by: cddbd v1.5.2PL0 Copyright (c) Steve Scherf et al.
# Submitted via: CDex 1.70beta2
#
DISCID=b30cbc0d
DTITLE=Beau Kavanagh and The Broken Hearted - Good Day For Dyin'
DYEAR=2003
DGENRE=Blues
TTITLE0=Good Day For Dyin'
TTITLE1=When I Come Home
TTITLE2=Bad Talkin' Woman
TTITLE3=Latin Jam
TTITLE4=To Know You
TTITLE5=Try
TTITLE6=Bad Car
TTITLE7=Late Night Confessions (Santana Jam)
TTITLE8=Putty and Paint
TTITLE9=Knocked Down
TTITLE10=Machine Gun
TTITLE11=Lady Luck
TTITLE12=Catfish
EXTD=YEAR: 2003
EXTT0=
EXTT1=
EXTT2=
EXTT3=
EXTT4=
EXTT5=
EXTT6=
EXTT7=
EXTT8=
EXTT9=
EXTT10=
EXTT11=
EXTT12=
PLAYORDER=
